<?xml version="1.0" encoding="UTF-8"?>
<svg xmlns="http://www.w3.org/2000/svg" xmlns:xlink="http://www.w3.org/1999/xlink" viewBox="0 0 48 48" width="48px" height="48px">
  <g id="surface1">
    <path style="stroke:none;fill-rule:nonzero;fill:rgb(55.686277%,55.686277%,55.686277%);fill-opacity:1;" d="M 24 4 C 19.75 4 16 7.75 16 12 L 16 20 L 10 20 C 8.9 20 8 20.9 8 22 L 8 38 C 8 39.1 8.9 40 10 40 L 38 40 C 39.1 40 40 39.1 40 38 L 40 22 C 40 20.9 39.1 20 38 20 L 32 20 L 32 12 C 32 7.75 28.25 4 24 4 z M 24 8 C 26.21 8 28 9.79 28 12 L 28 20 L 20 20 L 20 12 C 20 9.79 21.79 8 24 8 z M 10 24 L 38 24 L 38 36 L 10 36 z M 10 24 "/>
    <path style="stroke:none;fill-rule:nonzero;fill:rgb(100%,100%,100%);fill-opacity:1;" d="M 24 24 C 21.79 24 20 25.79 20 28 C 20 30.21 21.79 32 24 32 C 26.21 32 28 30.21 28 28 C 28 25.79 26.21 24 24 24 z M 24 26 C 25.11 26 26 26.89 26 28 C 26 29.11 25.11 30 24 30 C 22.89 30 22 29.11 22 28 C 22 26.89 22.89 26 24 26 z M 24 26 "/>
  </g>
</svg>